<svg xmlns="http://www.w3.org/2000/svg" viewBox="0 0 155.84 155.94"><defs><style>.cls-1{fill:#3e3a39;}</style></defs><title>資產 4</title><g id="圖層_2" data-name="圖層 2"><g id="圖層_3" data-name="圖層 3"><path class="cls-1" d="M71.16,155.94c-2.63-.43-5.27-.82-7.9-1.3C31.46,148.83,6,122.72,1,90.73c-6.33-40.19,17.92-78,57.34-88,28.08-7.12,53.11-.26,74.15,19.8A73.5,73.5,0,0,1,155,67c3.23,24.28-3.34,45.79-19.91,63.9-13.27,14.52-29.94,22.65-49.53,24.71a4.08,4.08,0,0,0-.87.3ZM36.56,66.83l-.25.5-10-2.85a23.76,23.76,0,0,0,5,14.54,24.14,24.14,0,0,0,13,8.56l-.1.51h-9.7c4,10.17,11.17,15.6,21.94,16.63a47.4,47.4,0,0,1-16.3,8.18,48.7,48.7,0,0,1-18.45,1.41c.78.55,1.14.84,1.54,1.08A66.76,66.76,0,0,0,60.59,125c17.91-.61,33.43-6.88,45.81-20,13.06-13.8,19.39-30.37,19.25-49.4a2.71,2.71,0,0,1,.82-1.7c2.35-2.28,4.84-4.43,7.14-6.76a56.79,56.79,0,0,0,3.69-4.63L125,46l-.12-.45c6.07-5.57,8.87-9.44,9.06-12.5-1.88.89-3.73,1.89-5.66,2.67s-4.09,1.35-6.09,2.13-3.35.38-5-1.07A23.52,23.52,0,0,0,90.3,34,23.76,23.76,0,0,0,78.2,57.87c.1.72.19,1.44.31,2.33-19.82-1.43-35.91-9.76-48.7-24.78a23.19,23.19,0,0,0-3.12,14.33A23.69,23.69,0,0,0,36.56,66.83Z"/></g></g></svg>