<svg xmlns="http://www.w3.org/2000/svg" viewBox="0 0 40.93 40.96"><defs><style>.cls-1{fill:#fff;}</style></defs><title>iconB</title><g id="圖層_2" data-name="圖層 2"><g id="圖層_1-2" data-name="圖層 1"><path class="cls-1" d="M18.69,41c-.69-.11-1.38-.21-2.07-.34A20.46,20.46,0,0,1,15.32.72,19.75,19.75,0,0,1,34.8,5.92a19.23,19.23,0,0,1,5.92,11.69A19.92,19.92,0,0,1,35.5,34.39a19.88,19.88,0,0,1-13,6.49,1,1,0,0,0-.22.08ZM9.6,17.56l-.06.13-2.61-.75a6.16,6.16,0,0,0,1.31,3.82A6.37,6.37,0,0,0,11.66,23l0,.13H9.08a6.4,6.4,0,0,0,5.77,4.37,12.22,12.22,0,0,1-4.28,2.14A12.61,12.61,0,0,1,5.72,30c.2.14.3.22.4.28a17.57,17.57,0,0,0,9.79,2.53,16.69,16.69,0,0,0,12-5.25,18,18,0,0,0,5.06-13,.68.68,0,0,1,.21-.45c.62-.6,1.27-1.16,1.88-1.78a14.21,14.21,0,0,0,1-1.21l-3.24.9,0-.12c1.59-1.46,2.33-2.48,2.38-3.28-.49.24-1,.5-1.49.7s-1.07.36-1.6.56a1.13,1.13,0,0,1-1.31-.28A6.23,6.23,0,0,0,20.54,15.2c0,.19.05.38.08.61A17.84,17.84,0,0,1,7.83,9.31,6.13,6.13,0,0,0,7,13.07,6.22,6.22,0,0,0,9.6,17.56Z"/></g></g></svg>