<svg xmlns="http://www.w3.org/2000/svg" viewBox="0 0 40.93 40.91"><defs><style>.cls-1{fill:#fff;}</style></defs><title>iconC</title><g id="圖層_2" data-name="圖層 2"><g id="圖層_1-2" data-name="圖層 1"><path class="cls-1" d="M18.69,40.91c-.68-.11-1.36-.21-2-.34A20.34,20.34,0,0,1,.44,24.6,19.92,19.92,0,0,1,5.69,6.32a19.47,19.47,0,0,1,13-6.24A19.92,19.92,0,0,1,35.19,6.23a19.57,19.57,0,0,1,5.66,12.31,20,20,0,0,1-6,16.46,19.86,19.86,0,0,1-12.4,5.83,1,1,0,0,0-.23.08Zm3.23-7.57V21.27h4.77V16.79H21.91c0-1.14,0-2.22,0-3.31a1.61,1.61,0,0,1,1.42-1.61,7.56,7.56,0,0,1,1.26-.1c.68,0,1.35,0,2,0V7.56H23.34a6.44,6.44,0,0,0-2.84.59,5,5,0,0,0-3,4.27c-.1,1.21,0,2.43-.05,3.64,0,.24,0,.48,0,.75H14.28v4.5h3.11v12Z"/></g></g></svg>