<svg xmlns="http://www.w3.org/2000/svg" viewBox="0 0 41 40.91"><defs><style>.cls-1{fill:#fff;}</style></defs><title>iconA</title><g id="圖層_2" data-name="圖層 2"><g id="圖層_1-2" data-name="圖層 1"><path class="cls-1" d="M18.76,40.91c-.82-.14-1.65-.23-2.45-.43-8.11-2-13.48-6.91-15.58-15C-1.19,18.12.71,11.52,6,6A19.32,19.32,0,0,1,17.92.16a20.34,20.34,0,0,1,20.87,11,19.58,19.58,0,0,1,2.13,7.41,1.77,1.77,0,0,0,.08.31V22c-.11.72-.21,1.44-.34,2.16A20.45,20.45,0,0,1,24.73,40.49c-.83.17-1.66.28-2.49.42Zm1.76-33H11.1A3,3,0,0,0,7.92,11V29.86a3,3,0,0,0,3.15,3.2q9.46,0,18.92,0a3,3,0,0,0,3.14-3.17V11a3,3,0,0,0-3.19-3.15Z"/><path class="cls-1" d="M10.83,18.49h2.32a7.55,7.55,0,0,0,2.07,7.44,7.31,7.31,0,0,0,5.65,2.18A7.68,7.68,0,0,0,28,18.5H30.3V29.17c0,.71-.24,1-.94,1H11.76c-.68,0-.95-.24-.95-.86q0-5.3,0-10.57C10.81,18.65,10.82,18.59,10.83,18.49Z"/><path class="cls-1" d="M20.57,15.67a4.83,4.83,0,1,1,0,9.65,4.83,4.83,0,1,1,0-9.65Z"/><path class="cls-1" d="M27.83,15.54H26.18a.66.66,0,0,1-.74-.73c0-1.12,0-2.23,0-3.35a.64.64,0,0,1,.71-.71H29.5a.65.65,0,0,1,.72.75q0,1.65,0,3.3a.67.67,0,0,1-.73.74Z"/></g></g></svg>