<svg xmlns="http://www.w3.org/2000/svg" viewBox="0 0 223.6 223.6"><defs><style>.cls-1{fill:#f5f1ea;}</style></defs><title>資產 1</title><g id="圖層_2" data-name="圖層 2"><g id="圖層_1-2" data-name="圖層 1"><path class="cls-1" d="M111.8,0A111.8,111.8,0,1,0,223.6,111.8,111.79,111.79,0,0,0,111.8,0ZM22.68,124.7s6.66-10.09,9.56-18.19c-7.9-3.91-19.6-6.06-19.6-6.06S24.45,98,32.23,94.36c-2.91-8.1-9.55-18.16-9.55-18.16s9,6.75,18.37,9.1c3.55-7.78,5.88-19.14,5.88-19.14s1.56,10.81,6.32,19c9.19-2.45,17.93-9,17.93-9S64.74,85.6,62,94c8.26,4.86,19.25,6.44,19.25,6.44s-11.42,2.13-19.33,6.2c2.72,8.47,9.28,18,9.28,18s-9.62-6.64-17.93-9.51c-4.15,7.92-6.32,19.55-6.32,19.55S44.78,123,40.86,115.11C32.5,117.93,22.68,124.7,22.68,124.7Zm46.37,50.56c-3.49,3.48-5.44,14.18-5.44,14.18s-2.26-11.08-5.39-14.22S44,169.83,44,169.83s9.36-1.34,13.82-5.8,5.79-13.81,5.79-13.81,1.93,10.37,5.58,14,14,5.58,14,5.58S72.53,171.78,69.05,175.26Zm31.87-122c-3.48,3.48-5.43,14.17-5.43,14.17s-2.27-11.08-5.4-14.21-14.21-5.4-14.21-5.4S85.24,46.43,89.69,42s5.8-13.82,5.8-13.82,1.92,10.38,5.58,14,14,5.58,14,5.58S104.4,49.72,100.92,53.21Z"/></g></g></svg>