<svg xmlns="http://www.w3.org/2000/svg" viewBox="0 0 40.61 30.92"><defs><style>.cls-1{fill:#9c8135;}</style></defs><title>資產 3</title><g id="圖層_2" data-name="圖層 2"><g id="圖層_1-2" data-name="圖層 1"><path class="cls-1" d="M7.48,22.21A38.45,38.45,0,0,1,27.22,23L20.84,2.84a38.43,38.43,0,0,1-15.68,12Z"/><path class="cls-1" d="M25,12.7c1.07,3.39,2.12,6.78,3.24,10.15.1.31.64.73.88.67a1.43,1.43,0,0,0,.76-.89c.1-.27-.1-.65-.21-1q-1.89-6-3.79-12c-.79-2.51-1.59-5-2.38-7.55-.2-.62-.57-1.06-1.26-.86s-.62.79-.43,1.39Q23.42,7.67,25,12.7Z"/><path class="cls-1" d="M9.25,22.84l1.49,5.95c.57,2.35.77,2.47,3.11,1.72l.78-.25c1-.36,1.29-.91.91-2s-.75-1.95-1.11-2.93C13.19,22,13.19,22,9.63,22.7A2.84,2.84,0,0,0,9.25,22.84Z"/><path class="cls-1" d="M6.46,22.52,4.13,15.17c-1.13.36-2.19.68-3.25,1a1.12,1.12,0,0,0-.81,1.5c.51,1.72,1.06,3.42,1.62,5.12a1.06,1.06,0,0,0,1.43.75C4.22,23.25,5.31,22.89,6.46,22.52Z"/><path class="cls-1" d="M35.93,10c1.25-.39,2.53-.74,3.75-1.22.31-.12.47-.65.7-1-.36-.14-.78-.49-1.08-.4q-3.78,1.11-7.52,2.38c-.3.1-.45.62-.67.94.39.15.82.5,1.15.42C33.5,10.78,34.71,10.34,35.93,10Z"/><path class="cls-1" d="M29.7,7.86a6.8,6.8,0,0,0,.59-.55l4.9-5.8c.34-.41.65-.87.12-1.31S34.38.14,34,.55L30.38,4.89c-.47.57-1,1.11-1.41,1.72a1,1,0,0,0,0,.91C29.06,7.71,29.44,7.75,29.7,7.86Z"/><path class="cls-1" d="M31.59,13.79c-.15.28-.49.63-.41.8a1.39,1.39,0,0,0,.8.74c2.4.68,4.82,1.29,7.23,1.94.54.14,1.14.34,1.35-.39s-.46-.92-1-1.07c-2.34-.63-4.69-1.24-7-1.86C32.24,13.89,32,13.86,31.59,13.79Z"/><path class="cls-1" d="M28.54,15.06a3.85,3.85,0,0,0,.75-4.21,3.59,3.59,0,0,0-2.77-2.19Z"/><path class="cls-1" d="M7.48,22.21,5.16,14.86a38.43,38.43,0,0,0,15.68-12L27.22,23A38.45,38.45,0,0,0,7.48,22.21Z"/><path class="cls-1" d="M25,12.7q-1.59-5-3.19-10.06c-.19-.6-.35-1.17.43-1.39s1.06.24,1.26.86c.79,2.52,1.59,5,2.38,7.55q1.9,6,3.79,12c.11.32.31.7.21,1a1.43,1.43,0,0,1-.76.89c-.24.06-.78-.36-.88-.67C27.12,19.48,26.07,16.09,25,12.7Z"/><path class="cls-1" d="M9.25,22.84a2.84,2.84,0,0,1,.38-.14c3.56-.72,3.56-.72,4.8,2.67.36,1,.76,1.95,1.11,2.93s.11,1.6-.91,2l-.78.25c-2.34.75-2.54.63-3.11-1.72Z"/><path class="cls-1" d="M6.46,22.52c-1.15.37-2.24.73-3.34,1.05a1.06,1.06,0,0,1-1.43-.75C1.13,21.12.58,19.42.07,17.7a1.12,1.12,0,0,1,.81-1.5c1.06-.35,2.12-.67,3.25-1Z"/><path class="cls-1" d="M35.93,10c-1.22.39-2.43.83-3.67,1.13-.33.08-.76-.27-1.15-.42.22-.32.37-.84.67-.94q3.73-1.28,7.52-2.38c.3-.09.72.26,1.08.4-.23.34-.39.87-.7,1C38.46,9.21,37.18,9.56,35.93,10Z"/><path class="cls-1" d="M29.7,7.86c-.26-.11-.64-.15-.74-.34a1,1,0,0,1,0-.91c.42-.61.94-1.15,1.41-1.72L34,.55c.34-.41.73-.8,1.27-.35s.22.9-.12,1.31l-4.9,5.8A6.8,6.8,0,0,1,29.7,7.86Z"/><path class="cls-1" d="M31.59,13.79c.39.07.65.1.91.16,2.35.62,4.7,1.23,7,1.86.56.15,1.25.26,1,1.07s-.81.53-1.35.39C36.8,16.62,34.38,16,32,15.33a1.39,1.39,0,0,1-.8-.74C31.1,14.42,31.44,14.07,31.59,13.79Z"/><path class="cls-1" d="M28.54,15.06l-2-6.4a3.59,3.59,0,0,1,2.77,2.19A3.85,3.85,0,0,1,28.54,15.06Z"/></g></g></svg>