<svg xmlns="http://www.w3.org/2000/svg" viewBox="0 0 343.17 174.39"><defs><style>.cls-1,.cls-2,.cls-3{fill:none;stroke:#fff;stroke-miterlimit:10;opacity:0.59;}.cls-1{stroke-width:1.93px;}.cls-2{stroke-width:1.28px;}.cls-3{stroke-width:0.85px;}</style></defs><title>風線2</title><g id="圖層_2" data-name="圖層 2"><g id="圖層_1-2" data-name="圖層 1"><path class="cls-1" d="M59.55,1c34.44.6,69.74,2.83,103.3,9.42,17.2,3.38,51,10,44,30.17-5.51,15.84-21.94,28-30.31,42.76s2.45,21.32,20.39,22.3c63.3,3.48,151.91,18.93,144.88,32.83s-147.69,10.81-301.48,1.93"/><path class="cls-2" d="M51.35,7.72C74.1,9.4,96.91,10.64,119.6,12.86c10.93,1.08,21.83,2.38,32.63,4.13,9.19,1.49,52.15,6.94,38.47,31.42-6.72,12-39.32,35.68-25.37,54.07,6.49,8.56,20,7.88,28.55,8.35,63.3,3.47,150,17.37,143,31.28S191.07,154.46,37.52,153.5"/><path class="cls-3" d="M43.14,18.34c23.38.08,46.83.26,70.08,2.5,15.45,1.49,31.11,3.77,45.89,7.84,9.53,2.63,25.81,4.84,14.46,20.43A160.4,160.4,0,0,0,158,75.36c-3.12,6.65-8.69,15.93-7.69,24.15,2,16.49,22.49,14.35,37.29,15,63.3,2.7,151.92,16.6,144.88,30.5S180.52,157.75,28.14,159.29"/><path class="cls-3" d="M37.52,20.27q23.68,1.31,47.23,4c12.71,1.44,25.42,3.16,37.89,5.64,9.35,1.87,21.45,3.9,29.36,8.73a13.54,13.54,0,0,1,6.47,13.71c-1.43,10.09-8.36,18.81-14.31,27.44-5.31,7.71-13.8,19.11-9.92,28.26,2.06,4.85,7.67,8.22,13.64,9.73,10.56,2.68,21.79,1.39,32.62,1.12a439.84,439.84,0,0,1,99.09,9.2c6.7,1.38,51.9,9.63,46.28,20.73-7,13.91-153.32,14.29-307.11,16.22"/><path class="cls-3" d="M26.27,24.13s112.52,5,120,28.19-77.83,78,23,72.22c63.82-3.67,156.13,15.06,149.1,29s-154.26,14.67-309,17.38"/><path class="cls-3" d="M18.76,28s109,6.8,116.75,27c8,20.85-107.37,91.13,45,76.07,56.34-5.57,141.13,14.29,134.1,28.19S150.51,170.88,0,174"/></g></g></svg>