<svg xmlns="http://www.w3.org/2000/svg" viewBox="0 0 411.92 175.85"><defs><style>.cls-1,.cls-2,.cls-3,.cls-4{fill:none;stroke:#fff;stroke-miterlimit:10;opacity:0.59;}.cls-1{stroke-width:0.51px;}.cls-2{stroke-width:1.02px;}.cls-3{stroke-width:0.86px;}.cls-4{stroke-width:1.53px;}</style></defs><title>風線</title><g id="圖層_2" data-name="圖層 2"><g id="圖層_1-2" data-name="圖層 1"><path class="cls-1" d="M379.13,175.6c-36-1-116.15-2.57-151.74-8.4-10.78-1.77-83.75-12.9-74.95-33.59,2.07-4.86,6.81-8.32,11-11.29,8.23-5.87,21.58-10.85,25.74-20.83a10.45,10.45,0,0,0,1-4.81c-.24-3.07-2.68-5.62-5.48-6.9-4.32-2-10.21-2.48-14.94-2.55C-48.92,84.09-126.6-6.81,376.58,53"/><path class="cls-2" d="M383.73,162.83c-34.74,13.28-169.54-.93-190.07-12.52-26.49-15,14-34.09,23-43.76a16.74,16.74,0,0,0,4.58-8.13c3.73-20.34-48.54-21-60.05-22.29C136.11,73.29,111,68.75,85.8,67.79c-71.09-2.7-62.11-24.45-61.92-25.26C31,11.89,187,29,362.16,40.26"/><path class="cls-3" d="M376.07,162.31c-17.94-1-49.13,1.86-66.92,0-24.5-2.55-123.61-10.21-95.22-34,14.26-11.93,57.62-37.35,18.13-50.86C219.85,73.3,168.33,68,155.51,67.12c-121-8.65-112.19-20.81-110.95-32.5,2.56-24,164-18.93,339.08-4.33"/><path class="cls-2" d="M373.22,155.43s-138.6,2.07-146.82-18.65S337.68,71,218.23,64.24c-248.14-14-187-47.09-142.46-50.34,6.71-.05,40.15-2.16,60.24-2.62a1692.6,1692.6,0,0,1,175.18,5.06q41.7,3.38,83.19,9"/><path class="cls-4" d="M401.6,148.52c-15.73.12-124.82,2.36-149.27-8.7-15.58-7,6.45-21.93,12.74-27.15,7.76-6.44,19.86-14.58,22.76-24.92,4.1-14.64-17.05-21.36-27.25-24.36C236.5,56.32,210.92,54,186,51.76c-27.73-2.48-55.58-3.48-83.3-6C24.63,38.64,27.94,7.24,64.48,4c66.34-5.93,213-4.6,347.34,12.26"/></g></g></svg>