<svg xmlns="http://www.w3.org/2000/svg" viewBox="0 0 155.84 155.74"><defs><style>.cls-1{fill:#3e3a39;}</style></defs><title>資產 3</title><g id="圖層_2" data-name="圖層 2"><g id="圖層_3" data-name="圖層 3"><path class="cls-1" d="M71.14,155.74c-2.58-.42-5.16-.81-7.73-1.28C32.7,148.89,7.59,124.36,1.67,93.64c-5.11-26.48,1.52-49.88,20-69.58A74.1,74.1,0,0,1,71.13.3c24.52-2,45.61,5.88,62.84,23.44A74.33,74.33,0,0,1,155.5,70.59c2.09,24.32-5.51,45.35-22.71,62.64-13,13-28.87,20.36-47.22,22.22a4.15,4.15,0,0,0-.86.29Zm12.32-28.82V81h18.15V63.9H83.43c0-4.3-.11-8.44,0-12.58a6.12,6.12,0,0,1,5.39-6.13,30.8,30.8,0,0,1,4.81-.39c2.57-.06,5.14,0,7.73,0v-16H88.86A24.64,24.64,0,0,0,78,31c-6.78,3.28-11,8.63-11.57,16.25-.37,4.6-.13,9.25-.18,13.88,0,.9-.11,1.8-.18,2.82H54.37V81.11H66.19v45.81Z"/></g></g></svg>