<svg xmlns="http://www.w3.org/2000/svg" viewBox="0 0 156.07 155.73"><defs><style>.cls-1{fill:#3e3a39;}</style></defs><title>資產 10</title><g id="圖層_2" data-name="圖層 2"><g id="圖層_3" data-name="圖層 3"><path class="cls-1" d="M71.4,155.73c-3.11-.53-6.26-.87-9.32-1.61-30.85-7.46-51.31-26.34-59.3-57C-4.53,69,2.71,43.85,22.92,22.92A73.56,73.56,0,0,1,68.22.6c33.46-4,63.85,12.12,79.46,42.05a74.27,74.27,0,0,1,8.09,28.2,7,7,0,0,0,.3,1.18V83.67c-.42,2.74-.79,5.49-1.26,8.22-5.31,30.76-30,56.15-60.66,62.26-3.14.63-6.33,1.06-9.5,1.58ZM78.11,29.92q-17.93,0-35.86,0c-7.23,0-12.09,4.84-12.1,12v71.73c0,7.24,4.74,12.17,12,12.18q36,.09,72.06,0c7.16,0,11.92-4.9,11.92-12.06q0-36,0-71.9c0-7.24-4.87-12-12.13-12Q96.06,29.91,78.11,29.92Z"/><path class="cls-1" d="M41.24,70.38h8.81c-2.43,10.89,0,20.47,7.88,28.34A27.84,27.84,0,0,0,79.45,107a29.23,29.23,0,0,0,27-36.57h8.86v40.63c0,2.68-.91,3.63-3.56,3.63h-67c-2.56,0-3.6-.9-3.61-3.27q0-20.11,0-40.23C41.14,71,41.19,70.78,41.24,70.38Z"/><path class="cls-1" d="M78.3,59.64a18.37,18.37,0,1,1-.11,36.74,18.37,18.37,0,1,1,.11-36.74Z"/><path class="cls-1" d="M106,59.15c-2.09,0-4.19,0-6.29,0-1.85,0-2.81-.93-2.83-2.76q0-6.37,0-12.75a2.47,2.47,0,0,1,2.72-2.71q6.39-.08,12.76,0a2.53,2.53,0,0,1,2.75,2.85q0,6.3,0,12.6a2.53,2.53,0,0,1-2.81,2.78C110.15,59.17,108.05,59.15,106,59.15Z"/></g></g></svg>