<svg xmlns="http://www.w3.org/2000/svg" viewBox="0 0 206.46 263.36"><defs><style>.cls-1{fill:#3e3a39;}.cls-2{fill:#fafafa;}.cls-3{fill:#fff;}</style></defs><title>logo2</title><g id="圖層_2" data-name="圖層 2"><g id="圖層_2-2" data-name="圖層 2"><path class="cls-1" d="M103.75,155.43a23.12,23.12,0,0,0-23.12,23.12v29.94h46.25V178.55A23.13,23.13,0,0,0,103.75,155.43Zm.41,40-20,9.48V179a20,20,0,0,1,20-20Z"/><polygon class="cls-2" points="159.21 208.78 206.46 208.78 127.82 58.79 105.89 103.86 159.21 208.78"/><polygon class="cls-1" points="108.87 103.98 127.61 63.84 147.91 102.34 134.88 93.01 142.34 108.98 129.56 98.84 139.75 119.9 123.29 102.65 129.29 122.33 117.09 106.84 117.39 121.05 108.87 103.98"/><path class="cls-1" d="M10.56,262.24H3.73l19.07-44h5.6l18.89,44h-7l-4.48-10.81H15ZM17.15,246H33.62l-8.21-20.63Z"/><path class="cls-1" d="M90.93,226.39a9.76,9.76,0,0,0-3.54-2.95,10.8,10.8,0,0,0-5-1.15,11.64,11.64,0,0,0-3,.4A8.32,8.32,0,0,0,76.58,224a7.19,7.19,0,0,0-2,2.23,6.24,6.24,0,0,0-.78,3.2,5.85,5.85,0,0,0,.72,3,6.57,6.57,0,0,0,1.92,2.05,12.73,12.73,0,0,0,2.86,1.43c1.1.39,2.27.79,3.51,1.21q2.25.68,4.54,1.55a16.31,16.31,0,0,1,4.16,2.3,10.51,10.51,0,0,1,4.23,9,12.93,12.93,0,0,1-1.28,5.93,12.15,12.15,0,0,1-3.38,4.17,14.64,14.64,0,0,1-4.88,2.45,20.12,20.12,0,0,1-5.69.81,20.7,20.7,0,0,1-8-1.62A15.92,15.92,0,0,1,66,257l4.78-4A11.82,11.82,0,0,0,75,256.65a11.66,11.66,0,0,0,8.77,1,8.77,8.77,0,0,0,2.82-1.36A7.5,7.5,0,0,0,88.63,254a6.67,6.67,0,0,0,.81-3.39,6.17,6.17,0,0,0-.84-3.33A7.38,7.38,0,0,0,86.34,245,15.13,15.13,0,0,0,83,243.38c-1.26-.43-2.6-.88-4-1.33a34.12,34.12,0,0,1-4.16-1.53,14.22,14.22,0,0,1-3.67-2.3,10.68,10.68,0,0,1-2.6-3.44,11.56,11.56,0,0,1-1-5.1A11.3,11.3,0,0,1,68.91,224a12.16,12.16,0,0,1,3.48-3.92,14.66,14.66,0,0,1,4.84-2.27,21.55,21.55,0,0,1,5.44-.71,19,19,0,0,1,7.21,1.37,14.33,14.33,0,0,1,5.4,3.66Z"/><path class="cls-1" d="M119.47,262.24h-6.15V223.65H99.22v-5.4h34.36v5.4H119.47Z"/><path class="cls-1" d="M133.26,262.24h-6.84l19.08-44h5.59l18.89,44h-7l-4.47-10.81H137.67ZM139.84,246h16.47l-8.2-20.63Z"/><path class="cls-1" d="M179.17,262.24H173v-44h14.11a27.38,27.38,0,0,1,6,.65,15.11,15.11,0,0,1,5,2.08,10.32,10.32,0,0,1,3.39,3.76,12.08,12.08,0,0,1,1.24,5.69,10.62,10.62,0,0,1-3,7.83,14,14,0,0,1-7.71,3.79l12.3,20.19h-7.45l-11.19-19.57h-6.58Zm0-24.73h7.08a20.49,20.49,0,0,0,4-.37,10.17,10.17,0,0,0,3.26-1.21,6.41,6.41,0,0,0,2.21-2.18,6.38,6.38,0,0,0-2.15-8.79,9.35,9.35,0,0,0-3.14-1.15,20.09,20.09,0,0,0-3.79-.34h-7.51Z"/><path class="cls-2" d="M105.89,0s1.86,13,8,19.11,19.11,8,19.11,8-14.36,2.67-19.41,7.72-7.72,19.4-7.72,19.4-2.7-14.79-7.51-19.6-19.61-7.52-19.61-7.52S94.1,24,98.43,19.66,105.89,0,105.89,0Z"/><path class="cls-3" d="M54.05,227.41s.83,5.8,3.59,8.56,8.56,3.59,8.56,3.59-6.43,1.19-8.69,3.46-3.46,8.69-3.46,8.69-1.21-6.63-3.37-8.78-8.78-3.37-8.78-3.37,6.86-1.4,8.8-3.34S54.05,227.41,54.05,227.41Z"/><path class="cls-1" d="M76.68,58.79,0,208.78l49.25-.07,73.2-149.92ZM95,92.56,80.5,118.42,83.89,91,63.64,124l12.55-33.9L60,112.36,68.25,88l-8.1,7.29L77.89,61.1h41.93L95.35,108.4Z"/></g></g></svg>