<svg xmlns="http://www.w3.org/2000/svg" viewBox="0 0 206.46 263.98"><defs><style>.cls-1,.cls-3{fill:#9d8135;}.cls-2{fill:#231815;}.cls-3{stroke:#9d8135;stroke-linejoin:round;stroke-width:1.24px;}</style></defs><title>logo</title><g id="圖層_2" data-name="圖層 2"><g id="圖層_1-2" data-name="圖層 1"><path class="cls-1" d="M103.75,156.05a23.12,23.12,0,0,0-23.12,23.12v29.94h46.25V179.17A23.13,23.13,0,0,0,103.75,156.05Zm.41,40-20,9.48V179.63a20,20,0,0,1,20-20Z"/><polygon class="cls-1" points="159.21 209.4 206.46 209.4 127.82 59.41 105.89 104.48 159.21 209.4"/><polygon class="cls-2" points="108.87 104.61 127.61 64.46 147.91 102.96 134.88 93.63 142.34 109.61 129.56 99.46 139.75 120.52 123.29 103.27 129.29 122.95 117.09 107.46 117.39 121.67 108.87 104.61"/><path class="cls-2" d="M10.56,262.86H3.73l19.07-44h5.6l18.89,44h-7l-4.48-10.81H15Zm6.59-16.22H33.62L25.41,226Z"/><path class="cls-2" d="M90.93,227a9.86,9.86,0,0,0-3.54-2.95,10.8,10.8,0,0,0-5-1.15,11.64,11.64,0,0,0-3,.4,8.32,8.32,0,0,0-2.77,1.31,7.19,7.19,0,0,0-2,2.23,6.27,6.27,0,0,0-.78,3.2,5.82,5.82,0,0,0,.72,3,6.46,6.46,0,0,0,1.92,2.05,12.73,12.73,0,0,0,2.86,1.43c1.1.39,2.27.79,3.51,1.21,1.5.46,3,1,4.54,1.55a16.31,16.31,0,0,1,4.16,2.3,10.51,10.51,0,0,1,4.23,9,12.93,12.93,0,0,1-1.28,5.93,12.15,12.15,0,0,1-3.38,4.17,14.28,14.28,0,0,1-4.88,2.45,20.12,20.12,0,0,1-5.69.81,20.7,20.7,0,0,1-8-1.62A15.92,15.92,0,0,1,66,257.58l4.78-4A11.82,11.82,0,0,0,75,257.27a11.66,11.66,0,0,0,8.77,1,8.77,8.77,0,0,0,2.82-1.36,7.39,7.39,0,0,0,2.08-2.33,6.65,6.65,0,0,0,.81-3.39,6.11,6.11,0,0,0-.84-3.32,7.41,7.41,0,0,0-2.26-2.27A15.59,15.59,0,0,0,83,244c-1.26-.43-2.6-.88-4-1.33a35.8,35.8,0,0,1-4.16-1.52,14.5,14.5,0,0,1-3.67-2.3,10.83,10.83,0,0,1-2.6-3.45,11.56,11.56,0,0,1-1-5.1,11.3,11.3,0,0,1,1.34-5.65,12.16,12.16,0,0,1,3.48-3.92,14.45,14.45,0,0,1,4.84-2.26,21.12,21.12,0,0,1,5.44-.72,19,19,0,0,1,7.21,1.37,14.33,14.33,0,0,1,5.4,3.66Z"/><path class="cls-2" d="M119.47,262.86h-6.15V224.28H99.22v-5.41h34.36v5.41H119.47Z"/><path class="cls-2" d="M133.26,262.86h-6.84l19.08-44h5.59l18.89,44h-7l-4.47-10.81H137.67Zm6.58-16.22h16.47L148.11,226Z"/><path class="cls-2" d="M179.17,262.86H173v-44h14.11a27.38,27.38,0,0,1,6,.65,15.11,15.11,0,0,1,5,2.08,10.32,10.32,0,0,1,3.39,3.76,12.08,12.08,0,0,1,1.24,5.69,10.62,10.62,0,0,1-3,7.83,13.89,13.89,0,0,1-7.71,3.79l12.3,20.19h-7.45l-11.19-19.57h-6.58Zm0-24.73h7.08a20.49,20.49,0,0,0,4-.37,10.17,10.17,0,0,0,3.26-1.21,6.41,6.41,0,0,0,2.21-2.18,6.38,6.38,0,0,0-2.15-8.79,9.35,9.35,0,0,0-3.14-1.15,20.09,20.09,0,0,0-3.79-.34h-7.51Z"/><path class="cls-3" d="M105.89.62s1.86,13,8,19.11,19.11,8,19.11,8-14.36,2.67-19.41,7.72-7.72,19.41-7.72,19.41-2.7-14.8-7.51-19.61-19.61-7.52-19.61-7.52,15.33-3.13,19.66-7.46S105.89.62,105.89.62Z"/><path class="cls-1" d="M54.05,228s.83,5.8,3.59,8.56,8.56,3.59,8.56,3.59-6.43,1.2-8.69,3.46-3.46,8.69-3.46,8.69-1.21-6.62-3.37-8.78-8.78-3.37-8.78-3.37,6.86-1.4,8.8-3.34S54.05,228,54.05,228Z"/><path class="cls-1" d="M76.68,59.41,0,209.4l49.25-.07,73.2-149.92ZM95,93.18,80.5,119l3.39-27.38-20.25,33,12.55-33.9L60,113l8.29-24.35-8.1,7.29,17.74-34.2h41.93L95.35,109Z"/></g></g></svg>